<?xml version="1.0" encoding="UTF-8"?>
<svg xmlns="http://www.w3.org/2000/svg" fill="white" width="512" height="512" viewBox="0 0 128 128"><g><path d="M57.86,52.913h1.97a1.75,1.75,0,0,0,0-3.5l-1.912.066.715-4.717a1.75,1.75,0,0,0-3.461-.524l-.715,4.719a3.442,3.442,0,0,0,3.4,3.956Z"/><path d="M68.681,44.038A4.183,4.183,0,1,0,64.5,39.855,4.187,4.187,0,0,0,68.681,44.038Z"/><path d="M49.651,57.251a1.75,1.75,0,0,0-.238,2.463,10.428,10.428,0,0,0,8.07,3.363,10.432,10.432,0,0,0,8.07-3.362,1.75,1.75,0,0,0-2.7-2.225,7.045,7.045,0,0,1-5.369,2.087,7.043,7.043,0,0,1-5.369-2.088A1.75,1.75,0,0,0,49.651,57.251Z"/><circle cx="46.538" cy="39.855" r="4.183"/><path d="M57.609,110.131a1.75,1.75,0,0,0-1.75,1.75v3.656a1.75,1.75,0,0,0,3.5,0v-3.656A1.749,1.749,0,0,0,57.609,110.131Z"/><path d="M99.926,71.807A28.085,28.085,0,0,0,76.508,84.4a4.346,4.346,0,0,1-2.078-1.551h0a7.382,7.382,0,0,1-.9-2.407L72.56,72.84a23.778,23.778,0,0,0,7.106-9.562,46.945,46.945,0,0,0,2.271-8.6c.049-.247.1-.486.149-.731a8.412,8.412,0,0,0,1.39.125,8.607,8.607,0,0,0,8.585-8.243,1.474,1.474,0,0,0,.018-.554V26.747A26.78,26.78,0,0,0,65.329,0H49.638a26.78,26.78,0,0,0-26.75,26.75V45.473a8.612,8.612,0,0,0,8.6,8.6,8.478,8.478,0,0,0,1.633-.166c.051.259.106.512.157.772a47.046,47.046,0,0,0,2.273,8.6,23.767,23.767,0,0,0,7.1,9.56L41.7,80.347a7.606,7.606,0,0,1-1.033,2.342,5.747,5.747,0,0,1-5.088,2.557c-2.165.18-4.317.387-6.494.506a56.644,56.644,0,0,0-11.191,1.531A24.363,24.363,0,0,0,0,110.728v15.516a1.749,1.749,0,0,0,1.75,1.75H20.156c.026,0,.051.008.077.008s.052-.007.078-.008H99.926a28.094,28.094,0,0,0,0-56.187ZM71.892,98.148,69.8,100.765l-9.15-6.9L72.61,86.07a8.776,8.776,0,0,0,2.145,1.372A27.889,27.889,0,0,0,71.892,98.148ZM83.476,50.576a4.818,4.818,0,0,1-.665-.067L84,45.081a24.2,24.2,0,0,0,.53-4.6,5.1,5.1,0,0,1-1.055,10.094ZM49.638,3.5H65.329a23.276,23.276,0,0,1,23.25,23.25V38.562a8.548,8.548,0,0,0-4.035-1.619v-5.6a1.75,1.75,0,0,0-1.656-1.747A16.951,16.951,0,0,1,68.9,20.679a1.75,1.75,0,0,0-3.3.821,8.134,8.134,0,0,1-8.125,8.125H32.425a1.749,1.749,0,0,0-1.75,1.75V36.91a8.551,8.551,0,0,0-4.287,1.652V26.747A23.276,23.276,0,0,1,49.638,3.5ZM26.388,45.473a5.1,5.1,0,0,1,4.3-5.022,24.2,24.2,0,0,0,.533,4.637l1.182,5.4a5.041,5.041,0,0,1-.911.089A5.109,5.109,0,0,1,26.388,45.473ZM38.8,61.964A44.325,44.325,0,0,1,36.715,54c-.181-.918-.362-1.831-.558-2.732L34.64,44.345a20.7,20.7,0,0,1-.465-4.335V33.125H57.484A11.643,11.643,0,0,0,68.245,25.9a20.522,20.522,0,0,0,12.8,7.032v7.077a20.657,20.657,0,0,1-.463,4.33L79.06,51.274c-.2.9-.375,1.812-.556,2.73a44.309,44.309,0,0,1-2.081,7.957,20.321,20.321,0,0,1-37.626,0ZM57.609,78.1a23.824,23.824,0,0,0,11.7-3.055l.747,5.845a8.35,8.35,0,0,0,.628,2.254l-4.321,2.817-8.758,5.709L44.436,83.083a10.308,10.308,0,0,0,.723-2.193l.747-5.844A23.823,23.823,0,0,0,57.609,78.1ZM42.484,85.989l12.08,7.875-9.149,6.9-9.6-12.022A9.17,9.17,0,0,0,42.484,85.989Zm-20.5,38.5V113.75a1.75,1.75,0,0,0-3.5,0v10.744H3.5V110.728a20.857,20.857,0,0,1,15.318-20.07,52.2,52.2,0,0,1,10.487-1.413q1.155-.071,2.31-.155l12.127,15.189a1.777,1.777,0,0,0,2.421.306l9.7-7.313v7.6a1.75,1.75,0,0,0,3.5,0v-7.6l9.7,7.313a1.777,1.777,0,0,0,2.421-.306l.6-.748a28.15,28.15,0,0,0,14.29,20.963Zm77.943,0A24.594,24.594,0,1,1,124.519,99.9,24.621,24.621,0,0,1,99.926,124.494Z"/><path d="M107.887,99.018A6.616,6.616,0,0,0,104.273,88.6V84.279a1.75,1.75,0,0,0-3.5,0v4.1H98.037v-4.1a1.75,1.75,0,0,0-3.5,0v4.1H90.344a1.75,1.75,0,0,0,0,3.5h.848V99.9h0v8.025h-.848a1.75,1.75,0,0,0,0,3.5h4.193v4.1a1.75,1.75,0,1,0,3.5,0v-4.1h2.736v4.1a1.75,1.75,0,1,0,3.5,0v-4.1h.347a6.633,6.633,0,0,0,3.267-12.408Zm-2.143-4a3.14,3.14,0,0,1-3.138,3.137H94.692V91.876h7.914A3.14,3.14,0,0,1,105.744,95.013Zm-1.124,12.913H94.692v-6.275h9.928a3.138,3.138,0,1,1,0,6.275Z"/></g></svg>
