<?xml version="1.0"?>
<svg xmlns="http://www.w3.org/2000/svg" id="outline" viewBox="0 0 512 512" width="512" height="512" fill="white"><path d="M176,88H112a8.00008,8.00008,0,0,0-8,8V240H72a8,8,0,0,0-7.84473,6.43066l-48,240A8.00012,8.00012,0,0,0,24,496H408a8.00012,8.00012,0,0,0,7.84473-9.56934l-48-240A8,8,0,0,0,360,240H328V136H496V120H360V32H496V16H248A72.08124,72.08124,0,0,0,176,88Zm40,36.686-2.34326-2.34327a8.00182,8.00182,0,0,0-11.31348,0L200,124.68652V104h16ZM78.55859,256H152v40H136v16h48V296H168V256h80v40H232v16h48V296H264V256h86.24139l-44.8,224H33.7583ZM248,240H168v-8a40,40,0,0,1,80,0ZM352,436.686l-26.97327,26.97314L352,328.793Zm8,14.62744L388.68622,480H331.31378Zm8-14.62744V328.79248l26.97363,134.86719ZM264,240v-8a56,56,0,0,0-112,0v8H120V104h64v40a8.00018,8.00018,0,0,0,13.65674,5.65723L208,139.31348l8.042,8.04248a21.9452,21.9452,0,0,0,42.72608,5.6372L270.61328,117.459A36.7342,36.7342,0,0,0,283.4162,104H312V240Zm80-120H328V96a8.00008,8.00008,0,0,0-8-8H287.93994c.03137-.6272.06006-1.25513.06006-1.88867V56H272V86.11133a20.83107,20.83107,0,0,1-11.57812,18.7334,8.00026,8.00026,0,0,0-4.01124,4.625l-12.82128,38.46289A5.94712,5.94712,0,0,1,232,146.05273V72H216V88H192a56.06322,56.06322,0,0,1,56-56h96Z"/></svg>
