<svg height="512pt" viewBox="0 -37 512 511" fill="white" width="512pt" xmlns="http://www.w3.org/2000/svg"><path d="m497 111.730469h-18.550781c-5.679688 0-11.214844.917969-16.449219 2.65625-4.324219-3.664063-8.976562-6.898438-13.878906-9.660157 10.835937-11.070312 17.535156-26.207031 17.535156-42.882812 0-33.824219-27.519531-61.34375-61.347656-61.34375s-61.347656 27.519531-61.347656 61.34375c0 16.675781 6.695312 31.808594 17.53125 42.878906-12.179688 6.898438-22.582032 16.582032-30.339844 28.179688-7.753906-11.597656-18.160156-21.28125-30.335938-28.179688 10.832032-11.070312 17.53125-26.203125 17.53125-42.878906 0-33.824219-27.523437-61.34375-61.347656-61.34375s-61.347656 27.519531-61.347656 61.34375c0 16.675781 6.699218 31.808594 17.53125 42.878906-12.179688 6.898438-22.582032 16.582032-30.339844 28.179688-7.753906-11.597656-18.160156-21.277344-30.335938-28.179688 10.832032-11.066406 17.53125-26.203125 17.53125-42.878906 0-33.824219-27.519531-61.34375-61.347656-61.34375s-61.347656 27.519531-61.347656 61.34375c0 16.675781 6.699219 31.8125 17.535156 42.878906-4.902344 2.765625-9.554687 5.996094-13.878906 9.664063-5.238281-1.738281-10.773438-2.65625-16.449219-2.65625h-18.550781c-8.285156 0-15 6.714843-15 15v74.152343c0 8.285157 6.714844 15 15 15h3.539062v207.460938c0 8.285156 6.714844 15 15 15h444.921876c8.285156 0 15-6.714844 15-15v-207.457031h3.539062c8.285156 0 15-6.714844 15-15v-74.15625c0-8.285157-6.714844-15-15-15zm-15 30v44.15625h-3.550781c-12.21875 0-22.066407-9.886719-22.066407-22.066407v-.023437c0-12.179687 9.863282-22.066406 22.066407-22.066406zm-77.691406-111.230469c17.285156 0 31.34375 14.0625 31.34375 31.347656 0 17.28125-14.0625 31.34375-31.34375 31.34375-17.285156 0-31.347656-14.0625-31.347656-31.34375 0-17.285156 14.0625-31.347656 31.347656-31.347656zm-148.308594 0c17.285156 0 31.347656 14.0625 31.347656 31.347656 0 17.28125-14.0625 31.34375-31.347656 31.34375s-31.347656-14.0625-31.347656-31.34375c0-17.285156 14.0625-31.347656 31.347656-31.347656zm-148.308594 0c17.285156 0 31.347656 14.0625 31.347656 31.347656 0 17.28125-14.0625 31.34375-31.347656 31.34375s-31.347656-14.0625-31.347656-31.34375c.003906-17.285156 14.0625-31.347656 31.347656-31.347656zm-77.691406 111.230469h3.550781c12.179688 0 22.066407 9.863281 22.066407 22.066406v.023437c0 12.167969-9.839844 22.066407-22.066407 22.066407h-3.550781zm18.539062 71.976562c.019532-.003906.035157-.011719.058594-.019531 12.605469-3.785156 37.019532-18.46875 37.019532-49.867188v-.023437c0-11.320313-3.589844-22.082031-10.222657-30.996094 9.535157-6.203125 20.761719-9.609375 32.304688-9.609375 32.613281 0 59.148437 26.53125 59.148437 59.148438v226.007812h-44.15625v-96.230468c0-8.285157-6.714844-15-15-15-8.28125 0-15 6.714843-15 15v96.230468h-44.152344zm148.308594-31.371093c0-32.613282 26.53125-59.144532 59.160156-59.144532 32.613282 0 59.148438 26.53125 59.148438 59.144532v226.007812h-44.15625v-96.230469c0-8.28125-6.714844-15-15-15s-15 6.71875-15 15v96.230469h-44.152344zm222.460938 226.007812v-96.230469c0-8.28125-6.71875-15-15-15-8.285156 0-15 6.71875-15 15v96.230469h-44.15625v-226.007812c0-32.613282 26.535156-59.144532 59.160156-59.144532 11.535156 0 22.761719 3.40625 32.292969 9.609375-.003907.003907-.003907.007813-.007813.011719-6.628906 8.914062-10.214844 19.671875-10.214844 30.984375v.023437c0 32.117188 25.191407 46.328126 37.078126 49.882813v194.640625zm0 0"/></svg>