<svg id="Layer_1" enable-background="new 0 0 512 512" height="512" viewBox="0 0 512 512" width="512" xmlns="http://www.w3.org/2000/svg" fill="white"><g id="XMLID_375_"><g id="XMLID_48_"><path id="XMLID_92_" d="m182 296.5c-5.522 0-10 4.477-10 10v33c0 27.57-22.43 50-50 50s-50-22.43-50-50v-33c0-5.523-4.478-10-10-10s-10 4.477-10 10v33c0 38.598 31.402 70 70 70s70-31.402 70-70v-33c0-5.523-4.478-10-10-10z"/><path id="XMLID_104_" d="m502 115.996h-64.025c-1.075-64.144-53.579-115.996-117.975-115.996s-116.9 51.852-117.975 115.996h-64.025c-5.522 0-10 4.477-10 10v126.004h-118c-5.522 0-10 4.477-10 10v240c0 5.523 4.478 10 10 10h492c5.522 0 10-4.477 10-10v-376.004c0-5.523-4.478-10-10-10zm-280 2.004c0-54.038 43.963-98 98-98s98 43.962 98 98v71c0 5.514-4.486 10-10 10s-10-4.486-10-10v-71c0-43.009-34.99-78-78-78s-78 34.991-78 78v71c0 5.514-4.486 10-10 10s-10-4.486-10-10zm155.949-2.004h-115.898c1.062-31.055 26.639-55.996 57.949-55.996s56.887 24.941 57.949 55.996zm114.051 376.004h-248v-65c0-5.523-4.478-10-10-10s-10 4.477-10 10v65h-204v-220h204v65c0 5.523 4.478 10 10 10s10-4.477 10-10v-75c0-5.523-4.478-10-10-10h-86v-116.004h54v53.004c0 16.542 13.458 30 30 30s30-13.458 30-30v-53.004h116v53.004c0 16.542 13.458 30 30 30s30-13.458 30-30v-53.004h54z"/><path id="XMLID_122_" d="m234 372c-2.63 0-5.21 1.07-7.07 2.93s-2.93 4.44-2.93 7.07 1.069 5.21 2.93 7.07 4.44 2.93 7.07 2.93 5.21-1.07 7.069-2.93c1.86-1.86 2.931-4.44 2.931-7.07s-1.07-5.21-2.931-7.07c-1.859-1.86-4.439-2.93-7.069-2.93z"/></g></g></svg>