<svg width="376" height="604" viewBox="0 0 376 604" fill="none" xmlns="http://www.w3.org/2000/svg">
<path d="M713.137 165.934C713.137 377.147 753.008 603.576 500.645 603.576C411.411 603.576 353.641 483.752 121.838 523.106C24.2613 539.672 -99.8362 526.023 -158.101 470.568C-238.25 394.285 -223.185 276.024 -223.185 196.967C-223.185 -14.2467 3.8308 -216.502 256.193 -216.502C508.556 -216.502 713.137 -45.2798 713.137 165.934Z" fill="#1752D3"/>
<path fill-rule="evenodd" clip-rule="evenodd" d="M369.958 307.022C438.78 315.094 594.552 323.251 650.991 326.047C662.39 326.612 671.902 317.512 671.896 306.099L671.747 -8.01522C671.742 -19.0622 662.782 -28.0128 651.735 -28.0057L38.8688 -27.6136C38.8688 -27.6136 -26.849 76.7483 18.2347 118.651C70.4768 167.206 87.0729 118.842 195.123 201.531C286.242 271.262 245.333 292.405 369.958 307.022Z" fill="#052C9C"/>
</svg>
