<svg width="889" height="1538" viewBox="0 0 889 1538" fill="none" xmlns="http://www.w3.org/2000/svg">
<g filter="url(#filter0_d)">
<path d="M58.347 40.4032C58.347 24.168 403.149 35.9744 476.427 24.1681C580.444 7.40943 707.913 -0.738419 825.97 36.0195C834.044 38.5335 839.446 46.1887 839.552 54.6446C846.352 596.155 864.205 906.206 857.532 1443.18C857.383 1455.14 846.837 1464.57 834.925 1463.56C782.212 1459.07 639.245 1451.31 439.673 1474.91C184.69 1505.07 26.1864 1474.91 30.3863 1465.8C34.5862 1456.68 58.347 56.6384 58.347 40.4032Z" fill="url(#paint0_linear)"/>
</g>
<defs>
<filter id="filter0_d" x="0.304877" y="0.000854492" width="888.695" height="1538" filterUnits="userSpaceOnUse" color-interpolation-filters="sRGB">
<feFlood flood-opacity="0" result="BackgroundImageFix"/>
<feColorMatrix in="SourceAlpha" type="matrix" values="0 0 0 0 0 0 0 0 0 0 0 0 0 0 0 0 0 0 127 0"/>
<feOffset dy="20"/>
<feGaussianBlur stdDeviation="15"/>
<feColorMatrix type="matrix" values="0 0 0 0 0.326081 0 0 0 0 0.477379 0 0 0 0 0.786026 0 0 0 0.72 0"/>
<feBlend mode="normal" in2="BackgroundImageFix" result="effect1_dropShadow"/>
<feBlend mode="normal" in="SourceGraphic" in2="effect1_dropShadow" result="shape"/>
</filter>
<linearGradient id="paint0_linear" x1="362.779" y1="1091.78" x2="-228.777" y2="949.103" gradientUnits="userSpaceOnUse">
<stop stop-color="#013398"/>
<stop offset="1" stop-color="#306FED"/>
</linearGradient>
</defs>
</svg>
