<svg width="27" height="27" viewBox="0 0 27 27" fill="none" xmlns="http://www.w3.org/2000/svg">
<path fill-rule="evenodd" clip-rule="evenodd" d="M16.9522 22.1256C16.9522 22.8676 17.9146 23.159 18.3262 22.5416L25.0371 12.4753C25.3694 11.9769 25.0121 11.3093 24.413 11.3093H19.1678V4.92418C19.1678 4.18212 18.2053 3.89073 17.7937 4.50815L11.0829 14.5744C10.7506 15.0728 11.1079 15.7404 11.7069 15.7404H16.9522V22.1256Z" fill="#FEBA53"/>
<path fill-rule="evenodd" clip-rule="evenodd" d="M3.65886 7.27043C3.65886 6.44201 4.33043 5.77043 5.15886 5.77043H11.0211C11.8495 5.77043 12.5211 6.442 12.5211 7.27043V7.59377C12.5211 8.42219 11.8495 9.09377 11.0211 9.09377H5.15886C4.33044 9.09377 3.65886 8.42219 3.65886 7.59377V7.27043ZM3.65886 20.5638C3.65886 19.7353 4.33043 19.0638 5.15886 19.0638H11.0211C11.8495 19.0638 12.5211 19.7353 12.5211 20.5638V20.8871C12.5211 21.7155 11.8495 22.3871 11.0211 22.3871H5.15886C4.33044 22.3871 3.65886 21.7155 3.65886 20.8871V20.5638ZM2.94336 12.4171C2.11493 12.4171 1.44336 13.0887 1.44336 13.9171V14.2404C1.44336 15.0689 2.11493 15.7404 2.94336 15.7404H7.6978C8.52623 15.7404 9.1978 15.0689 9.1978 14.2404V13.9171C9.1978 13.0887 8.52623 12.4171 7.6978 12.4171H2.94336Z" fill="#F2F2F2"/>
</svg>
