<svg width="937" height="840" viewBox="0 0 937 840" fill="none" xmlns="http://www.w3.org/2000/svg">
<g id="Booble B">
<path id="Ellipse" d="M749.521 425.946C749.521 575.704 707.957 805.68 558.199 805.68C408.44 805.68 207.198 575.704 207.198 425.946C207.198 276.187 328.602 154.784 478.36 154.784C628.118 154.784 749.521 276.187 749.521 425.946Z" fill="#03215E"/>
<path id="Combined Shape" fill-rule="evenodd" clip-rule="evenodd" d="M785.274 835.193C906.699 853.921 1093.02 800.289 1144.54 784.327C1152.76 781.78 1158.15 774.189 1158.14 765.582L1157.88 18.4874C1157.87 7.43791 1148.91 -1.51476 1137.86 -1.50546L98.6511 -0.631038C98.6511 -0.631038 -9.82045 187.139 65.6349 279.365C153.071 386.234 293.662 305.732 474.503 487.727C627.007 641.204 576.693 803.022 785.274 835.193Z" fill="url(#paint0_linear)"/>
</g>
<defs>
<linearGradient id="paint0_linear" x1="814.861" y1="92.6347" x2="647.909" y2="812.358" gradientUnits="userSpaceOnUse">
<stop stop-color="#013398"/>
<stop offset="1" stop-color="#306FED"/>
</linearGradient>
</defs>
</svg>
