<svg width="879" height="1232" viewBox="0 0 879 1232" fill="none" xmlns="http://www.w3.org/2000/svg">
<path d="M176.55 798.41C176.569 1226.78 590.208 1158.05 925.158 1016.84C1271.73 870.734 1362.72 847.108 1362.72 539.66C1351.44 281.294 1300.52 43.4409 980.296 3.14726C660.07 -37.1464 176.55 490.962 176.55 798.41Z" fill="#1A53C6"/>
<path d="M139.353 694.095C27.5 1151.3 709.465 1293.64 1025.64 1207.43C1347.6 1103.46 1331.62 999.48 1438.12 919.489C1440.86 917.432 1443.18 914.607 1444.63 911.505C1524.73 740.192 1550.28 766.547 1550.28 645.966C1550.28 406.959 1377.51 114.04 981.816 232.022C760.424 298.032 790.02 379.677 485.227 434.146C279.193 470.966 173.203 555.732 139.353 694.095Z" fill="#003399"/>
<path d="M475.698 953.585C476.194 952.713 476.627 951.806 476.993 950.872L484.425 935.379H474.912C472.195 931.591 468.652 928.468 464.55 926.245C446.479 915.817 417.175 915.817 399.104 926.245C395.002 928.468 391.459 931.591 388.741 935.379H379.165L386.597 950.851C386.953 951.807 387.393 952.729 387.913 953.606C390.669 957.934 394.493 961.481 399.019 963.907C417.09 974.313 446.394 974.313 464.465 963.907C468.991 961.481 472.815 957.934 475.57 953.606L475.698 953.585Z" fill="url(#paint0_linear)"/>
<path d="M622.408 746.114L246.553 745.839L380.82 938.495C384.026 943.403 388.404 947.438 393.561 950.236C414.647 962.402 448.772 962.402 470.007 950.236C475.164 947.438 479.542 943.403 482.747 938.495L622.408 746.114Z" fill="url(#paint1_linear)"/>
<path d="M626.082 658.328C625.339 657.205 624.575 656.06 623.768 654.937L609.647 634.166H604.55C596.638 627.437 588.106 621.469 579.069 616.342C499.247 570.351 369.821 570.351 290 616.342C280.966 621.474 272.434 627.442 264.518 634.166H257.893L242.306 659.451C216.23 701.119 232.092 749.484 289.978 782.865C369.8 828.857 499.226 828.857 579.047 782.865C637.549 749.188 653.199 700.208 626.082 658.328Z" fill="url(#paint2_linear)"/>
<path d="M433.823 782.166C537.988 782.166 622.43 733.506 622.43 673.482C622.43 613.457 537.988 564.798 433.823 564.798C329.658 564.798 245.215 613.457 245.215 673.482C245.215 733.506 329.658 782.166 433.823 782.166Z" fill="url(#paint3_linear)"/>
<path d="M433.823 773.392C530.611 773.392 609.073 728.129 609.073 672.295C609.073 616.461 530.611 571.198 433.823 571.198C337.034 571.198 258.572 616.461 258.572 672.295C258.572 728.129 337.034 773.392 433.823 773.392Z" fill="url(#paint4_linear)"/>
<path d="M638.229 690.395C638.229 720.575 618.332 750.756 578.389 773.773C498.546 819.764 369.12 819.764 289.299 773.773C253.391 753.087 233.664 726.616 230.075 699.593C230.075 729.752 249.993 759.912 289.915 782.908C369.736 828.899 499.162 828.899 579.005 782.908C622.982 757.517 642.73 723.521 638.229 690.395Z" fill="url(#paint5_linear)"/>
<path d="M632.792 628.02C632.792 628.02 629.989 628.02 630.881 631.051L593.423 614.223C592.224 613.776 590.933 613.633 589.666 613.807C588.398 613.981 587.194 614.466 586.16 615.219L514.217 667.314C510.968 666.212 508.059 666.043 506.997 668.268C505.086 672.274 506.849 674.181 508.292 675.305C508.684 675.633 509.12 675.904 509.588 676.11L548.532 693.511C549.713 693.951 550.985 694.093 552.233 693.923C553.482 693.752 554.669 693.276 555.688 692.536L633.004 636.583C633.004 636.583 638.228 632.725 632.792 628.02Z" fill="url(#paint6_linear)"/>
<path style="mix-blend-mode:multiply" opacity="0.8" d="M632.792 628.02C632.792 628.02 629.989 628.02 630.881 631.051L593.423 614.223C592.224 613.776 590.933 613.633 589.666 613.807C588.398 613.981 587.194 614.466 586.16 615.219L514.217 667.314C510.968 666.212 508.059 666.043 506.997 668.268C505.086 672.274 506.849 674.181 508.292 675.305C508.684 675.633 509.12 675.904 509.588 676.11L548.532 693.511C549.713 693.951 550.985 694.093 552.233 693.923C553.482 693.752 554.669 693.276 555.688 692.536L633.004 636.583C633.004 636.583 638.228 632.874 632.792 628.02Z" fill="url(#paint7_linear)"/>
<path d="M632.813 628.02C632.813 628.02 630.01 628.02 630.902 631.051L593.444 614.223C592.245 613.776 590.954 613.633 589.687 613.807C588.419 613.981 587.215 614.466 586.181 615.219L514.238 667.251C510.989 666.149 508.08 665.979 507.018 668.205C505.107 672.21 506.87 674.097 508.313 675.241C508.705 675.569 509.141 675.84 509.609 676.046L548.532 693.447C549.713 693.888 550.984 694.029 552.233 693.859C553.482 693.689 554.669 693.212 555.688 692.472L633.004 636.519C633.004 636.519 638.1 632.789 632.813 628.02Z" fill="url(#paint8_linear)"/>
<path d="M508.037 666.954L585.65 610.832C586.685 610.082 587.891 609.601 589.158 609.431C590.426 609.261 591.716 609.407 592.912 609.857L631.857 627.278C632.353 627.496 632.785 627.838 633.111 628.27C633.437 628.702 633.646 629.211 633.719 629.747C633.791 630.283 633.724 630.829 633.525 631.332C633.325 631.835 633 632.278 632.579 632.619L555.412 688.572C554.397 689.321 553.209 689.803 551.959 689.974C550.708 690.144 549.435 689.997 548.256 689.547L509.311 672.168C506.402 670.875 506.296 668.395 508.037 666.954Z" fill="white"/>
<path d="M524.771 676.131C524.537 676.131 524.537 675.771 524.771 675.601C524.9 675.506 525.05 675.444 525.209 675.418C525.368 675.392 525.53 675.404 525.683 675.453C525.937 675.559 525.937 675.813 525.683 676.004C525.549 676.09 525.398 676.145 525.241 676.167C525.083 676.189 524.923 676.177 524.771 676.131Z" fill="url(#paint9_linear)"/>
<path d="M534.835 680.561L526.171 676.746C525.916 676.64 525.937 676.407 526.171 676.216C526.304 676.119 526.459 676.057 526.622 676.035C526.785 676.013 526.951 676.031 527.105 676.089L535.748 679.904C536.003 679.904 536.003 680.243 535.748 680.434C535.619 680.53 535.467 680.592 535.308 680.614C535.148 680.637 534.985 680.618 534.835 680.561Z" fill="url(#paint10_linear)"/>
<path d="M572.231 677.657C572.106 677.618 571.973 677.618 571.848 677.657L568.153 680.518C567.95 680.675 567.814 680.902 567.771 681.154C567.711 681.345 567.728 681.552 567.82 681.731C567.911 681.909 568.069 682.045 568.26 682.108C568.376 682.15 568.504 682.15 568.621 682.108L572.358 679.374C572.469 679.3 572.563 679.203 572.633 679.09C572.702 678.976 572.746 678.849 572.761 678.717C572.808 678.613 572.832 678.501 572.829 678.387C572.827 678.274 572.8 678.162 572.749 678.061C572.698 677.959 572.625 677.87 572.535 677.8C572.446 677.731 572.342 677.682 572.231 677.657Z" fill="#1C82F2"/>
<path d="M572.655 677.912C572.598 677.887 572.537 677.874 572.474 677.874C572.412 677.874 572.351 677.887 572.294 677.912L568.472 680.688C568.28 680.842 568.151 681.06 568.111 681.303C568.111 681.769 568.238 682.214 568.578 682.256C568.694 682.299 568.822 682.299 568.939 682.256L572.676 679.522C572.789 679.448 572.884 679.351 572.957 679.238C573.03 679.125 573.079 678.998 573.101 678.865C573.163 678.68 573.152 678.477 573.069 678.299C572.986 678.122 572.838 677.983 572.655 677.912Z" fill="url(#paint11_linear)"/>
<path d="M578.112 673.567C577.99 673.517 577.853 673.517 577.73 673.567L573.929 676.343C573.829 676.414 573.745 676.506 573.683 676.612C573.62 676.718 573.581 676.836 573.568 676.958C573.507 677.146 573.521 677.351 573.608 677.529C573.695 677.707 573.849 677.844 574.035 677.911C574.152 677.954 574.28 677.954 574.396 677.911L578.134 675.199C578.354 675.042 578.506 674.807 578.558 674.542C578.617 674.353 578.604 674.149 578.521 673.969C578.439 673.79 578.294 673.646 578.112 673.567Z" fill="#1C82F2"/>
<path d="M578.537 673.694C578.42 673.652 578.292 673.652 578.176 673.694L574.354 676.47C574.158 676.621 574.029 676.841 573.993 677.085C573.931 677.273 573.946 677.478 574.033 677.656C574.12 677.834 574.273 677.971 574.46 678.039C574.582 678.088 574.719 678.088 574.842 678.039L578.579 675.304C578.693 675.232 578.791 675.136 578.864 675.022C578.937 674.909 578.985 674.781 579.004 674.647C579.065 674.459 579.051 674.254 578.964 674.076C578.876 673.898 578.723 673.761 578.537 673.694Z" fill="url(#paint12_linear)"/>
<path d="M566.348 682.044C566.225 682.001 566.09 682.001 565.966 682.044L565.032 682.701C564.932 682.772 564.848 682.864 564.785 682.97C564.723 683.076 564.684 683.194 564.671 683.316C564.609 683.504 564.624 683.709 564.711 683.887C564.798 684.065 564.951 684.202 565.138 684.27C565.255 684.312 565.382 684.312 565.499 684.27L566.348 683.676C566.463 683.604 566.56 683.508 566.633 683.394C566.706 683.281 566.754 683.153 566.773 683.019C566.843 682.833 566.838 682.628 566.759 682.446C566.68 682.264 566.532 682.12 566.348 682.044Z" fill="#1C82F2"/>
<path d="M566.773 682.214C566.65 682.164 566.513 682.164 566.39 682.214L565.456 682.871C565.261 683.021 565.131 683.242 565.095 683.485C565.034 683.674 565.048 683.879 565.135 684.057C565.223 684.235 565.376 684.372 565.562 684.439C565.685 684.489 565.822 684.489 565.945 684.439L566.815 683.846C566.924 683.77 567.017 683.673 567.086 683.56C567.156 683.446 567.201 683.32 567.219 683.189C567.288 683 567.28 682.792 567.196 682.61C567.113 682.427 566.96 682.285 566.773 682.214Z" fill="url(#paint13_linear)"/>
<path d="M629.395 628.359L591.682 611.637C590.845 611.323 589.942 611.222 589.055 611.344C588.169 611.466 587.327 611.807 586.607 612.337L510.544 667.442C509.333 668.459 509.397 670.197 511.372 671.108L519.059 674.499L520.078 673.757C520.69 673.335 521.39 673.056 522.126 672.942C522.862 672.829 523.613 672.883 524.325 673.1L541.313 680.646C542.502 681.175 542.481 682.299 541.313 683.189L540.272 683.931L548.979 687.788C549.804 688.102 550.696 688.204 551.571 688.086C552.446 687.967 553.278 687.632 553.99 687.11L629.82 632.174C630.164 631.964 630.441 631.661 630.619 631.299C630.796 630.937 630.867 630.532 630.822 630.132C630.778 629.732 630.62 629.352 630.367 629.038C630.114 628.724 629.777 628.489 629.395 628.359Z" fill="#132463"/>
<path d="M130.229 508.018C134.051 505.094 133.711 508.273 132.501 511.982L198.669 485.807C200.117 485.341 201.663 485.259 203.152 485.572C204.642 485.884 206.024 486.579 207.163 487.587L288.704 557.528C292.569 556.426 295.966 556.469 297.198 559.287C299.321 564.395 297.049 566.599 295.308 567.892C294.837 568.273 294.306 568.573 293.737 568.782L225.785 595.636C224.359 596.087 222.84 596.16 221.377 595.848C219.913 595.536 218.557 594.849 217.44 593.855L129.656 518.658C129.656 518.658 122.882 513.656 130.229 508.018Z" fill="#EFF6F9"/>
<path d="M560.637 654.386L562.505 638.363L567.963 640.801L566.943 648.303L583.974 644.361L590.896 647.392L560.637 654.386Z" fill="#FDB954"/>
<path d="M129.72 508.018C133.563 505.094 133.202 508.273 132.013 511.982L198.202 485.807C199.65 485.341 201.196 485.259 202.685 485.572C204.175 485.884 205.557 486.579 206.696 487.587L288.216 557.528C292.081 556.426 295.499 556.469 296.71 559.287C298.833 564.395 296.561 566.599 294.799 567.892C294.335 568.273 293.811 568.573 293.249 568.782L225.297 595.635C223.876 596.096 222.357 596.174 220.896 595.861C219.434 595.549 218.081 594.857 216.973 593.855L129.38 518.552C129.38 518.552 122.394 513.656 129.72 508.018Z" fill="white"/>
<path d="M130.229 508.018C134.051 505.094 133.711 508.273 132.501 511.982L198.669 485.807C200.117 485.341 201.663 485.259 203.152 485.572C204.642 485.884 206.024 486.579 207.163 487.587L288.704 557.528C292.569 556.426 295.966 556.469 297.198 559.287C299.321 564.395 297.049 566.599 295.308 567.892C294.837 568.273 294.306 568.573 293.737 568.782L225.785 595.636C224.359 596.087 222.84 596.16 221.377 595.848C219.913 595.536 218.557 594.849 217.44 593.855L129.656 518.658C129.656 518.658 122.882 513.656 130.229 508.018Z" fill="#DADEE4"/>
<path d="M295.946 557.677L207.991 482.14C206.854 481.13 205.473 480.433 203.983 480.117C202.494 479.801 200.948 479.877 199.497 480.339L131.546 507.256C130.916 507.488 130.358 507.882 129.928 508.397C129.498 508.912 129.21 509.53 129.094 510.191C128.978 510.851 129.038 511.53 129.267 512.161C129.496 512.791 129.886 513.351 130.399 513.783L218.014 589.087C219.118 590.073 220.458 590.759 221.905 591.079C223.352 591.398 224.857 591.34 226.274 590.909L294.226 564.056C297.644 562.636 297.899 559.605 295.946 557.677Z" fill="white"/>
<path d="M291.444 558.016L219.436 585.823C219.179 585.903 218.905 585.916 218.641 585.861C218.377 585.805 218.132 585.682 217.929 585.505L134.625 514.25C134.548 514.185 134.489 514.102 134.455 514.008C134.421 513.914 134.411 513.812 134.429 513.713C134.446 513.615 134.489 513.522 134.553 513.445C134.617 513.368 134.701 513.309 134.795 513.275L206.738 485.129C206.974 485.054 207.226 485.042 207.468 485.094C207.71 485.146 207.934 485.26 208.118 485.425L291.592 557.126C291.661 557.185 291.712 557.261 291.743 557.346C291.774 557.431 291.782 557.523 291.767 557.612C291.752 557.701 291.715 557.785 291.658 557.856C291.601 557.927 291.527 557.982 291.444 558.016Z" fill="#243E90"/>
<path d="M291.55 557.867L208.097 486.146C207.907 485.985 207.678 485.874 207.432 485.826C207.187 485.778 206.933 485.793 206.696 485.871L134.752 514.017H134.582C134.531 513.946 134.497 513.865 134.484 513.779C134.47 513.693 134.477 513.605 134.504 513.522C134.531 513.44 134.577 513.365 134.639 513.303C134.7 513.242 134.776 513.196 134.858 513.169L206.802 485.002C207.038 484.929 207.289 484.918 207.531 484.97C207.773 485.022 207.997 485.135 208.182 485.298L291.656 556.998C291.718 557.05 291.769 557.115 291.803 557.188C291.838 557.261 291.855 557.341 291.855 557.422C291.855 557.503 291.838 557.583 291.803 557.656C291.769 557.73 291.718 557.795 291.656 557.846C291.619 557.842 291.582 557.849 291.55 557.867Z" fill="url(#paint14_linear)"/>
<path d="M262.202 573.233C262.436 573.233 262.436 572.915 262.202 572.704C262.089 572.609 261.955 572.542 261.812 572.509C261.668 572.476 261.518 572.477 261.375 572.513C261.142 572.513 261.142 572.831 261.375 573.043C261.488 573.138 261.622 573.204 261.766 573.237C261.91 573.271 262.059 573.269 262.202 573.233Z" fill="#243E90"/>
<path d="M252.669 576.942L260.865 573.763C261.12 573.763 261.12 573.424 260.865 573.233C260.754 573.128 260.617 573.055 260.467 573.021C260.318 572.988 260.162 572.995 260.016 573.043L251.819 576.222C251.586 576.328 251.565 576.561 251.819 576.752C251.932 576.855 252.069 576.927 252.219 576.961C252.368 576.994 252.523 576.988 252.669 576.942Z" fill="#243E90"/>
<path d="M167.008 498.926L172.062 496.998C173.06 496.595 173.081 495.599 172.062 494.878C171.575 494.462 170.992 494.173 170.366 494.036C169.74 493.899 169.09 493.919 168.473 494.094L163.419 496.023C162.421 496.426 162.4 497.422 163.419 498.142C163.906 498.558 164.489 498.848 165.115 498.984C165.741 499.121 166.391 499.101 167.008 498.926Z" fill="#243E90"/>
<path d="M172.148 495.535C171.658 495.124 171.076 494.838 170.451 494.701C169.825 494.565 169.176 494.582 168.559 494.751L163.505 496.701C163.354 496.752 163.214 496.833 163.093 496.938C162.973 497.044 162.875 497.172 162.805 497.316C162.737 497.178 162.7 497.028 162.697 496.874C162.694 496.721 162.725 496.569 162.788 496.429C162.851 496.29 162.944 496.165 163.061 496.066C163.178 495.966 163.315 495.894 163.463 495.853L168.517 493.924C169.133 493.75 169.784 493.73 170.41 493.867C171.036 494.003 171.619 494.293 172.106 494.709C172.367 494.877 172.57 495.123 172.684 495.412C172.798 495.701 172.819 496.018 172.743 496.319C172.609 496.015 172.405 495.747 172.148 495.535Z" fill="url(#paint15_linear)"/>
<path d="M201.45 576.773C201.569 576.742 201.693 576.742 201.811 576.773L205.379 579.867C205.569 580.046 205.689 580.286 205.718 580.545C205.718 581.012 205.548 581.436 205.209 581.478C205.155 581.503 205.098 581.515 205.039 581.515C204.98 581.515 204.922 581.503 204.869 581.478L201.365 578.447C201.26 578.362 201.173 578.256 201.111 578.135C201.049 578.015 201.012 577.883 201.004 577.748C200.898 577.239 201.11 576.815 201.45 576.773Z" fill="url(#paint16_linear)"/>
<path d="M201.026 577.006C201.09 576.998 201.155 577.003 201.218 577.021C201.28 577.039 201.337 577.07 201.387 577.112L205.039 580.312C205.225 580.486 205.345 580.718 205.379 580.969C205.379 581.457 205.209 581.88 204.869 581.923C204.805 581.931 204.74 581.926 204.678 581.908C204.616 581.89 204.558 581.859 204.508 581.817L201.005 578.786C200.896 578.702 200.806 578.597 200.741 578.476C200.675 578.356 200.635 578.223 200.623 578.087C200.453 577.472 200.792 577.048 201.026 577.006Z" fill="#243E90"/>
<path d="M195.929 572.089C195.986 572.065 196.048 572.053 196.11 572.053C196.172 572.053 196.233 572.065 196.29 572.089L199.879 575.183C200.069 575.362 200.189 575.602 200.219 575.862C200.219 576.328 200.049 576.752 199.709 576.794C199.656 576.819 199.598 576.832 199.539 576.832C199.48 576.832 199.422 576.819 199.369 576.794L195.866 573.763C195.76 573.678 195.673 573.572 195.611 573.452C195.549 573.331 195.513 573.199 195.505 573.064C195.377 572.555 195.59 572.131 195.929 572.089Z" fill="url(#paint17_linear)"/>
<path d="M195.505 572.322C195.569 572.314 195.634 572.319 195.697 572.337C195.759 572.356 195.816 572.387 195.866 572.428L199.433 575.523C199.619 575.696 199.739 575.928 199.773 576.18C199.773 576.667 199.603 577.091 199.264 577.133C199.136 577.13 199.011 577.094 198.903 577.027L195.378 573.954C195.269 573.87 195.179 573.765 195.113 573.644C195.048 573.524 195.007 573.391 194.995 573.255C194.932 572.788 195.165 572.365 195.505 572.322Z" fill="#243E90"/>
<path d="M206.971 581.563C207.028 581.539 207.09 581.527 207.152 581.527C207.214 581.527 207.275 581.539 207.332 581.563L208.203 582.305C208.393 582.475 208.514 582.708 208.543 582.962C208.543 583.449 208.373 583.873 208.033 583.894C207.916 583.936 207.789 583.936 207.672 583.894L206.865 583.237C206.653 583.061 206.516 582.811 206.483 582.538C206.419 582.029 206.631 581.605 206.971 581.563Z" fill="url(#paint18_linear)"/>
<path d="M206.547 581.796C206.611 581.788 206.677 581.793 206.739 581.811C206.801 581.829 206.859 581.86 206.908 581.902L207.779 582.622C207.874 582.709 207.951 582.813 208.006 582.93C208.061 583.046 208.092 583.172 208.097 583.301C208.097 583.767 207.949 584.191 207.609 584.233C207.552 584.257 207.49 584.269 207.428 584.269C207.366 584.269 207.305 584.257 207.248 584.233L206.462 583.555C206.354 583.471 206.264 583.365 206.198 583.245C206.132 583.125 206.092 582.992 206.08 582.856C205.974 582.262 206.207 581.838 206.547 581.796Z" fill="#243E90"/>
<path d="M230.797 591.376C230.585 592.203 230.988 592.711 231.646 592.52C232.037 592.361 232.384 592.111 232.657 591.79C232.931 591.469 233.123 591.087 233.218 590.677C233.409 589.871 233.027 589.363 232.347 589.553C231.963 589.713 231.622 589.962 231.352 590.279C231.083 590.595 230.892 590.971 230.797 591.376Z" fill="#243E90"/>
<path d="M231.158 592.796C231.346 592.848 231.544 592.848 231.731 592.796C232.161 592.623 232.544 592.35 232.847 592C233.15 591.65 233.364 591.232 233.473 590.782C233.545 590.568 233.561 590.339 233.52 590.116C233.48 589.894 233.383 589.686 233.239 589.511C233.118 589.386 232.963 589.3 232.793 589.262C232.623 589.225 232.446 589.237 232.283 589.299C231.838 589.477 231.444 589.764 231.14 590.135C230.835 590.505 230.63 590.947 230.542 591.418C230.473 591.628 230.456 591.852 230.493 592.07C230.53 592.288 230.62 592.493 230.755 592.669C230.875 592.747 231.014 592.791 231.158 592.796ZM232.729 589.786H232.878C232.936 589.901 232.966 590.028 232.966 590.157C232.966 590.286 232.936 590.413 232.878 590.528C232.789 590.887 232.618 591.221 232.378 591.504C232.139 591.787 231.838 592.012 231.498 592.16C231.427 592.201 231.346 592.222 231.264 592.222C231.182 592.222 231.102 592.201 231.031 592.16C230.973 592.045 230.943 591.918 230.943 591.789C230.943 591.66 230.973 591.533 231.031 591.418C231.12 591.059 231.291 590.725 231.53 590.442C231.77 590.159 232.071 589.934 232.411 589.786C232.488 589.773 232.567 589.773 232.645 589.786H232.729Z" fill="#E7E1FF"/>
<path opacity="0.4" d="M293.567 552.908L221.582 580.693C221.324 580.774 221.05 580.787 220.786 580.732C220.522 580.676 220.277 580.553 220.074 580.376L136.77 509.142C136.693 509.077 136.634 508.994 136.6 508.9C136.566 508.806 136.556 508.704 136.574 508.605C136.591 508.507 136.634 508.414 136.698 508.337C136.762 508.26 136.846 508.202 136.94 508.167L208.883 480C209.119 479.927 209.37 479.916 209.612 479.968C209.854 480.02 210.078 480.133 210.263 480.296L293.737 551.996C293.805 552.06 293.855 552.139 293.884 552.227C293.912 552.314 293.918 552.408 293.902 552.498C293.885 552.589 293.845 552.674 293.787 552.746C293.728 552.817 293.653 552.873 293.567 552.908Z" fill="url(#paint19_linear)"/>
<path d="M220.732 569.461C221.087 569.554 221.46 569.554 221.815 569.461L293.843 541.654C294.06 541.581 294.253 541.449 294.399 541.273C294.546 541.097 294.64 540.884 294.671 540.658C294.714 540.422 294.695 540.18 294.617 539.953C294.539 539.727 294.404 539.524 294.225 539.365L210.752 467.559C210.47 467.301 210.125 467.123 209.751 467.045C209.377 466.967 208.989 466.99 208.628 467.114L136.621 495.281C136.405 495.369 136.216 495.51 136.071 495.692C135.926 495.874 135.83 496.09 135.793 496.319C135.749 496.566 135.77 496.82 135.851 497.058C135.933 497.295 136.074 497.507 136.26 497.676L219.564 568.91C219.904 569.184 220.304 569.373 220.732 569.461ZM292.93 540.213L221.369 567.765C221.239 567.796 221.103 567.794 220.974 567.761C220.844 567.728 220.725 567.664 220.626 567.574L137.64 496.616L209.223 468.618C209.329 468.585 209.443 468.581 209.551 468.607C209.66 468.634 209.759 468.689 209.838 468.767L292.93 540.213Z" fill="#EFF6F9"/>
<path d="M234.046 542.819L232.007 512.13L221.985 516.072L223.174 530.463L192.808 520.883L180.088 525.822L234.046 542.819Z" fill="#FDB954"/>
<path d="M412.333 715.319L420.508 706.842L408.638 687.597L393.031 633.743C390.419 624.693 381.84 615.749 373.919 613.799L318.072 600.023L297.495 587.899L289.426 596.377C289.232 596.55 289.047 596.734 288.874 596.928L288.747 597.055C286.835 599.365 286.326 603.159 287.685 607.843L308.134 678.484C310.767 687.555 319.346 696.478 327.245 698.449L403.818 717.312C405.278 717.834 406.859 717.924 408.37 717.571C409.881 717.217 411.257 716.435 412.333 715.319Z" fill="url(#paint20_linear)"/>
<path d="M412.482 708.304L335.909 689.441C327.946 687.47 319.388 678.547 316.798 669.476L296.349 598.836C293.737 589.786 298.047 584 305.989 585.971L382.562 604.855C390.525 606.805 399.082 615.749 401.673 624.82L422.143 695.439C424.734 704.51 420.423 710.275 412.482 708.304Z" fill="#2655B4"/>
<path d="M404.306 686.94C399.252 678.208 390.015 665.089 378.952 662.355L373.367 660.977L370.883 654.916C371.717 654.069 372.343 653.041 372.711 651.912C373.08 650.783 373.181 649.584 373.006 648.409L371.859 632.704C371.89 632.309 371.89 631.912 371.859 631.517V631.178C371.742 630.225 371.55 629.282 371.286 628.359C369.373 622.944 366.204 618.057 362.037 614.097C357.871 610.137 352.825 607.217 347.312 605.575C337.119 603.074 331.216 609.2 334.125 619.267C334.423 620.24 334.777 621.196 335.187 622.128L335.357 622.467C335.59 622.997 335.845 623.527 336.1 624.036L344.594 641.394C346.155 644.643 348.316 647.57 350.964 650.02L351.878 655.679L346.356 654.322C335.272 651.588 332.787 661.825 332.384 669.158C332.214 672.549 336.1 677.064 340.05 678.038L369.927 685.393L371.222 685.711L400.951 693.065C404.964 694.104 406.642 690.946 404.306 686.94Z" fill="white"/>
<path d="M343.065 610.09C348.541 611.76 353.544 614.695 357.669 618.657C361.794 622.62 364.925 627.498 366.806 632.895C367.076 633.818 367.275 634.76 367.4 635.714V636.01C367.4 636.413 367.4 636.816 367.4 637.197L368.526 652.902C368.7 654.077 368.6 655.276 368.231 656.405C367.863 657.534 367.237 658.562 366.402 659.409L368.887 665.47L374.472 666.848C385.535 669.561 394.772 682.68 399.826 691.433C400.115 691.933 400.356 692.458 400.548 693.002H400.888C404.837 693.977 406.515 690.882 404.179 686.813C399.125 678.081 389.888 664.962 378.825 662.228L373.261 660.85L370.755 654.789C371.588 653.941 372.213 652.913 372.582 651.784C372.95 650.655 373.052 649.456 372.879 648.282L371.732 632.577C371.763 632.189 371.763 631.799 371.732 631.411V631.178C371.615 630.218 371.423 629.269 371.159 628.338C369.262 622.937 366.113 618.06 361.969 614.105C357.824 610.149 352.803 607.227 347.312 605.575C340.645 603.922 335.845 605.999 334.104 610.429C336.97 609.32 340.124 609.201 343.065 610.09Z" fill="url(#paint21_linear)"/>
<path d="M342.025 658.837L347.546 660.193L351.899 655.679C351.899 655.679 346.505 654.386 346.441 654.323C340.177 652.775 336.652 655.382 334.72 659.261C337.03 658.273 339.615 658.123 342.025 658.837Z" fill="url(#paint22_linear)"/>
<path d="M375.385 555.854L373.665 552.103C374.916 550.423 375.95 548.593 376.744 546.656C381.543 535.105 380.014 518.806 373.325 510.265L346.166 475.422L341.133 464.443L332.023 465.694C327.989 466.414 324.145 469.932 321.597 476.1C316.777 487.651 318.306 503.949 324.995 512.491L355.912 552.103C358.885 555.896 362.389 557.507 365.765 557.126L375.385 555.854Z" fill="#132463"/>
<path d="M365.001 550.894L334.083 511.282C327.394 502.805 325.887 486.443 330.686 474.892C335.506 463.32 344.828 460.882 351.517 469.424L382.413 509.036C389.102 517.513 390.631 533.854 385.832 545.426C381.012 556.998 371.69 559.436 365.001 550.894Z" fill="#2655B4"/>
<path d="M382.711 540.975C378.952 550.174 370.947 551.255 364.852 543.392C361.759 538.942 359.762 533.825 359.024 528.459C358.286 523.093 358.828 517.629 360.606 512.512C364.385 503.313 372.37 502.232 378.464 510.095C381.556 514.546 383.552 519.662 384.29 525.028C385.028 530.394 384.487 535.858 382.711 540.975Z" fill="white"/>
<path d="M701.55 483.963L696.814 476.46L679.826 489.918L659.802 490.808C656.424 491.187 653.184 492.358 650.346 494.226C647.508 496.093 645.152 498.604 643.472 501.554L628.247 530.802L604.507 549.601L608.966 556.617C609.087 556.855 609.229 557.082 609.391 557.295C610.114 558.088 611.019 558.695 612.029 559.065C613.038 559.434 614.122 559.554 615.188 559.414L655.661 557.634C659.039 557.244 662.277 556.067 665.114 554.196C667.951 552.326 670.307 549.815 671.991 546.867L686.133 519.717L703.354 518.954C703.354 518.954 705.648 510.689 702.271 505.475L703.716 507.743L697.494 497.909L701.019 491.148C701.715 490.095 702.13 488.882 702.223 487.624C702.316 486.366 702.084 485.106 701.55 483.963Z" fill="url(#paint23_linear)"/>
<path d="M633.981 486.527L604.953 542.268C602.002 547.948 604.529 552.335 610.581 552.06L651.054 550.28C654.428 549.889 657.663 548.71 660.496 546.84C663.329 544.969 665.681 542.459 667.362 539.513L681.526 512.342L698.747 511.579C698.747 511.579 702.994 495.959 691.018 494.094L696.39 483.772C699.363 478.113 696.836 473.726 690.784 473.98L650.311 475.782C646.934 476.164 643.695 477.336 640.857 479.204C638.02 481.071 635.664 483.58 633.981 486.527Z" fill="#2655B4"/>
<path d="M643.813 524.444C648.06 524.253 649.95 527.39 647.847 531.438C646.642 533.551 644.954 535.351 642.921 536.691C640.888 538.032 638.568 538.875 636.147 539.153C631.9 539.343 630.01 536.207 632.134 532.137C633.338 530.03 635.023 528.235 637.053 526.898C639.082 525.562 641.398 524.721 643.813 524.444Z" fill="white"/>
<path d="M653.984 504.903C658.231 504.712 660.121 507.849 658.019 511.918C656.813 514.031 655.125 515.831 653.093 517.171C651.06 518.512 648.739 519.355 646.318 519.633C642.072 519.823 640.182 516.687 642.305 512.617C643.51 510.508 645.195 508.711 647.223 507.371C649.252 506.03 651.568 505.185 653.984 504.903Z" fill="white"/>
<path d="M664.156 485.383C668.403 485.192 670.293 488.329 668.19 492.398C666.984 494.508 665.295 496.305 663.262 497.642C661.229 498.978 658.909 499.818 656.49 500.092C652.243 500.282 650.353 497.146 652.477 493.097C653.678 490.985 655.361 489.185 657.391 487.844C659.42 486.504 661.738 485.66 664.156 485.383Z" fill="white"/>
<path d="M681.483 512.342L686.176 519.781L703.398 519.018L698.705 511.6L681.483 512.342Z" fill="url(#paint24_linear)"/>
<path d="M723.698 603.626L721.192 607.864C719.827 607.043 718.365 606.395 716.839 605.936C716.457 605.809 716.032 605.724 715.629 605.618C715.712 604.857 715.647 604.087 715.438 603.35C714.949 602.248 705.903 599.302 703.206 598.687C700.51 598.073 688.788 600.595 688.788 600.595L678.447 612.951L680.57 613.587C679.933 614.096 679.317 614.625 678.723 615.176C677.711 616.106 676.78 617.12 675.941 618.207L670.377 618.801L673.095 629.207C674.157 632.789 677.342 635.756 682.672 637.388C694.245 640.97 711.297 636.837 720.683 628.147C725.545 623.675 727.393 618.843 726.458 614.71L723.698 603.626ZM694.904 625.986L686.24 620.835C686.82 619.845 687.535 618.939 688.363 618.144C691.153 615.761 694.466 614.069 698.034 613.203C701.601 612.338 705.323 612.324 708.897 613.163C710.55 613.606 712.031 614.537 713.144 615.833L694.904 625.986Z" fill="url(#paint25_linear)"/>
<path d="M718.453 619.14C709.067 627.808 692.016 631.962 680.443 628.381C668.87 624.799 667.086 614.837 676.472 606.148C685.857 597.458 702.93 593.325 714.503 596.907C726.076 600.489 727.86 610.471 718.453 619.14ZM686.134 609.136C681.058 613.82 682.014 619.203 688.257 621.153C691.836 621.984 695.561 621.965 699.132 621.096C702.702 620.227 706.018 618.534 708.812 616.151C713.887 611.468 712.932 606.084 706.689 604.134C703.11 603.295 699.383 603.31 695.811 604.179C692.239 605.048 688.924 606.747 686.134 609.136Z" fill="#2655B4"/>
<path d="M545.411 501.173L537.554 495.005L522.265 506.641L478.054 524.338C470.601 527.305 463.763 535.295 462.787 542.162L455.864 590.379L447.37 608.734L455.142 614.837L455.673 615.24H455.779C457.903 616.66 461.13 616.766 464.995 615.24L523.008 592.032C530.462 589.044 537.278 581.054 538.276 574.208L547.768 508.252C548.101 506.97 548.055 505.621 547.637 504.365C547.218 503.109 546.446 502 545.411 501.173Z" fill="#132463"/>
<path d="M539.465 501.639L529.931 567.765C528.954 574.632 522.116 582.601 514.663 585.589L456.65 608.797C449.217 611.786 443.909 608.628 444.97 601.782L454.441 535.656C455.439 528.789 462.277 520.82 469.709 517.831L527.722 494.518C535.218 491.635 540.548 494.772 539.465 501.639Z" fill="#2655B4"/>
<path d="M527.34 537.669C524.367 558.27 506.233 581.33 486.866 589.065C467.5 596.801 454.186 586.353 457.138 565.752C460.089 545.151 478.245 522.092 497.484 514.356C516.723 506.62 530.292 517.069 527.34 537.669ZM464.825 562.679C462.531 578.765 472.937 586.925 488.056 580.884C503.175 574.844 517.338 556.829 519.632 540.743C521.925 524.656 511.52 516.496 496.422 522.537C481.324 528.577 467.139 546.592 464.825 562.679Z" fill="white"/>
<path d="M505.086 543.752L489.945 557.422L475.676 545.342L482.046 537.458L492.897 546.656L502.453 538.009L505.086 543.752Z" fill="white"/>
<path d="M500.202 715.659L471.408 746.878L432.124 738.103L460.918 706.884L500.202 715.659ZM468.945 737.446L484.149 720.957L463.381 716.316L448.113 732.911L468.945 737.446Z" fill="#2655B4"/>
<path d="M432.06 738.104L435.075 747.832L474.36 756.606L471.344 746.878L432.06 738.104Z" fill="url(#paint26_linear)"/>
<path d="M500.138 715.659L503.133 725.387L474.359 756.606L471.344 746.878L500.138 715.659Z" fill="url(#paint27_linear)"/>
<path d="M463.318 716.316L466.333 726.044L477.163 728.46L484.085 720.936L463.318 716.316Z" fill="url(#paint28_linear)"/>
<path d="M448.113 732.805L463.317 716.316L466.333 726.044L458.051 735.03L448.113 732.805Z" fill="url(#paint29_linear)"/>
<path d="M208.713 657.184L211.389 652.034L203.086 644.594L188.221 621.281C186.918 619.308 185.169 617.669 183.114 616.494C181.06 615.32 178.758 614.644 176.394 614.52L148.088 615.77L136.685 612.909L134.051 617.996L133.86 618.335C133.587 619.222 133.535 620.163 133.709 621.076C133.883 621.988 134.277 622.844 134.858 623.57L154.373 654.089C155.678 656.061 157.427 657.699 159.482 658.873C161.536 660.048 163.837 660.725 166.201 660.85L204.997 659.112C205.735 659.169 206.474 659.018 207.13 658.677C207.787 658.336 208.335 657.819 208.713 657.184Z" fill="url(#paint30_linear)"/>
<path d="M207.821 653.856L169.025 655.573C166.66 655.452 164.357 654.777 162.302 653.603C160.247 652.428 158.498 650.787 157.197 648.812L137.683 618.292C135.177 614.392 136.408 611.065 140.443 610.895L179.218 609.157C181.58 609.288 183.88 609.967 185.933 611.141C187.987 612.315 189.737 613.951 191.046 615.918L210.56 646.438C213.066 650.359 211.834 653.665 207.821 653.856Z" fill="#2655B4"/>
<path d="M174.886 631.899L174.398 616.639C171.104 615.595 167.659 615.108 164.205 615.198C153.248 615.685 149.149 623.57 155.053 632.789C160.956 642.009 174.61 649.109 185.567 648.621C196.524 648.134 200.623 640.249 194.719 631.03C194.55 630.733 194.337 630.479 194.146 630.203L174.886 631.899Z" fill="white"/>
<path d="M162.251 618.949C165.706 618.859 169.151 619.346 172.444 620.39L172.932 635.65L192.192 633.955C192.383 634.23 192.596 634.485 192.766 634.781C193.826 636.208 194.59 637.831 195.013 639.556C195.436 641.281 195.509 643.074 195.229 644.827C198.18 641.563 198.265 636.54 194.719 631.03C194.549 630.733 194.337 630.479 194.146 630.203L174.886 631.899L174.398 616.639C171.104 615.595 167.659 615.108 164.205 615.198C157.643 615.495 153.587 618.441 152.611 622.743C153.885 621.504 155.394 620.531 157.049 619.88C158.704 619.229 160.473 618.912 162.251 618.949Z" fill="#132463"/>
<path d="M477.29 417.964L433.716 442.825C431.788 444.096 430.184 445.798 429.03 447.795C427.877 449.793 427.205 452.032 427.07 454.333V485.87C427.07 490.109 430.064 491.805 433.716 489.707L445.331 483.009V500.113L459.771 474.68L477.29 464.803C479.222 463.542 480.83 461.845 481.984 459.85C483.139 457.855 483.807 455.617 483.936 453.316V421.8C483.936 417.583 480.942 415.866 477.29 417.964Z" fill="url(#paint31_linear)"/>
<path d="M427.07 485.87V454.333C427.205 452.032 427.877 449.793 429.03 447.795C430.184 445.798 431.788 444.096 433.716 442.825L477.29 417.964C477.945 417.5 478.708 417.209 479.507 417.12C480.305 417.031 481.114 417.147 481.855 417.455L477.417 414.785C476.663 414.433 475.828 414.289 475 414.367C474.171 414.445 473.378 414.743 472.703 415.23L429.129 440.091C427.202 441.362 425.597 443.063 424.444 445.061C423.29 447.059 422.619 449.297 422.483 451.599V483.136C422.389 483.99 422.538 484.853 422.914 485.625C423.29 486.397 423.876 487.048 424.606 487.502L428.981 490.13C428.32 489.646 427.797 488.999 427.462 488.252C427.127 487.506 426.992 486.685 427.07 485.87Z" fill="url(#paint32_linear)"/>
<path d="M445.332 483.009L440.766 485.637V497.379L445.332 499.922V483.009Z" fill="url(#paint33_linear)"/>
<path d="M457.584 458.89V457.618C457.649 456.995 457.483 456.369 457.117 455.859C456.469 455.342 455.703 454.992 454.887 454.842C453.558 454.677 452.32 454.082 451.362 453.146C450.679 452.122 450.358 450.898 450.449 449.671C450.457 447.222 451.197 444.831 452.573 442.804C454.107 440.509 456.167 438.613 458.582 437.272C461.159 435.634 464.172 434.814 467.225 434.919L465.229 440.684C463.045 440.621 460.886 441.156 458.986 442.231C458.022 442.753 457.182 443.476 456.522 444.351C455.959 445.104 455.653 446.018 455.652 446.958C455.626 447.294 455.666 447.632 455.772 447.952C455.878 448.272 456.046 448.568 456.268 448.823C457.004 449.397 457.873 449.776 458.795 449.925C459.87 450.12 460.841 450.691 461.534 451.536C462.103 452.463 462.371 453.544 462.298 454.63V456.177L457.584 458.89ZM462.192 466.117C461.62 467.071 460.817 467.866 459.856 468.427C458.858 469 458.094 469.127 457.521 468.809C456.947 468.491 456.671 467.77 456.671 466.69C456.655 465.585 456.95 464.499 457.521 463.553C458.092 462.605 458.896 461.817 459.856 461.264C460.918 460.67 461.725 460.501 462.256 460.798C462.787 461.094 463.084 461.815 463.084 462.917C463.085 464.045 462.776 465.152 462.192 466.117Z" fill="white"/>
<path fill-rule="evenodd" clip-rule="evenodd" d="M422.762 295.008C401.616 293.288 375.126 316.412 382.246 330.803C389.365 345.194 450.728 365.332 453.963 345.301C456.176 331.596 443.908 296.728 422.762 295.008Z" fill="#FEBA53"/>
<defs>
<linearGradient id="paint0_linear" x1="484.425" y1="945.086" x2="379.228" y2="945.086" gradientUnits="userSpaceOnUse">
<stop stop-color="#D8D8D8"/>
<stop offset="0.01" stop-color="#DADADA"/>
<stop offset="0.12" stop-color="#EBEBEB"/>
<stop offset="0.26" stop-color="#F6F6F6"/>
<stop offset="0.46" stop-color="#FDFDFD"/>
<stop offset="1" stop-color="white"/>
</linearGradient>
<linearGradient id="paint1_linear" x1="217807" y1="62451.4" x2="183294" y2="29197.3" gradientUnits="userSpaceOnUse">
<stop stop-color="#D8D8D8"/>
<stop offset="0.01" stop-color="#DADADA"/>
<stop offset="0.12" stop-color="#EBEBEB"/>
<stop offset="0.26" stop-color="#F6F6F6"/>
<stop offset="0.46" stop-color="#FDFDFD"/>
<stop offset="1" stop-color="white"/>
</linearGradient>
<linearGradient id="paint2_linear" x1="638.993" y1="699.572" x2="230.181" y2="699.572" gradientUnits="userSpaceOnUse">
<stop stop-color="#D8D8D8"/>
<stop offset="1" stop-color="white"/>
</linearGradient>
<linearGradient id="paint3_linear" x1="279686" y1="68890.2" x2="196564" y2="-10069.2" gradientUnits="userSpaceOnUse">
<stop stop-color="#D8D8D8"/>
<stop offset="0.01" stop-color="#DADADA"/>
<stop offset="0.12" stop-color="#EBEBEB"/>
<stop offset="0.26" stop-color="#F6F6F6"/>
<stop offset="0.46" stop-color="#FDFDFD"/>
<stop offset="1" stop-color="white"/>
</linearGradient>
<linearGradient id="paint4_linear" x1="723.932" y1="541.272" x2="242.662" y2="759.479" gradientUnits="userSpaceOnUse">
<stop stop-color="white"/>
<stop offset="0.41" stop-color="#FCFCFC"/>
<stop offset="0.66" stop-color="#F4F4F4"/>
<stop offset="0.87" stop-color="#E6E6E6"/>
<stop offset="1" stop-color="#D8D8D8"/>
</linearGradient>
<linearGradient id="paint5_linear" x1="256253" y1="30378.2" x2="174236" y2="26334.7" gradientUnits="userSpaceOnUse">
<stop stop-color="#D8D8D8"/>
<stop offset="0.01" stop-color="#DADADA"/>
<stop offset="0.12" stop-color="#EBEBEB"/>
<stop offset="0.26" stop-color="#F6F6F6"/>
<stop offset="0.46" stop-color="#FDFDFD"/>
<stop offset="1" stop-color="white"/>
</linearGradient>
<linearGradient id="paint6_linear" x1="562.003" y1="654.723" x2="554.02" y2="655.56" gradientUnits="userSpaceOnUse">
<stop stop-color="#0081C6"/>
<stop offset="0.26" stop-color="#2C61AE"/>
<stop offset="0.42" stop-color="#2A5DA9"/>
<stop offset="0.6" stop-color="#26529C"/>
<stop offset="0.78" stop-color="#1F4085"/>
<stop offset="0.98" stop-color="#142766"/>
<stop offset="1" stop-color="#132462"/>
</linearGradient>
<linearGradient id="paint7_linear" x1="584.773" y1="671.5" x2="583.127" y2="669.197" gradientUnits="userSpaceOnUse">
<stop stop-color="#3C2A55"/>
<stop offset="1" stop-color="#C0ABFF"/>
</linearGradient>
<linearGradient id="paint8_linear" x1="74911.6" y1="17275.6" x2="74975.3" y2="17099.8" gradientUnits="userSpaceOnUse">
<stop stop-color="#0081C6"/>
<stop offset="0.26" stop-color="#2C61AE"/>
<stop offset="0.42" stop-color="#2A5DA9"/>
<stop offset="0.6" stop-color="#26529C"/>
<stop offset="0.78" stop-color="#1F4085"/>
<stop offset="0.98" stop-color="#142766"/>
<stop offset="1" stop-color="#132462"/>
</linearGradient>
<linearGradient id="paint9_linear" x1="1245.32" y1="827.589" x2="1251.87" y2="831.738" gradientUnits="userSpaceOnUse">
<stop stop-color="#0081C6"/>
<stop offset="0.26" stop-color="#2C61AE"/>
<stop offset="0.42" stop-color="#2A5DA9"/>
<stop offset="0.6" stop-color="#26529C"/>
<stop offset="0.78" stop-color="#1F4085"/>
<stop offset="0.98" stop-color="#142766"/>
<stop offset="1" stop-color="#132462"/>
</linearGradient>
<linearGradient id="paint10_linear" x1="6135.66" y1="1582.76" x2="6177.98" y2="1617.97" gradientUnits="userSpaceOnUse">
<stop stop-color="#0081C6"/>
<stop offset="0.26" stop-color="#2C61AE"/>
<stop offset="0.42" stop-color="#2A5DA9"/>
<stop offset="0.6" stop-color="#26529C"/>
<stop offset="0.78" stop-color="#1F4085"/>
<stop offset="0.98" stop-color="#142766"/>
<stop offset="1" stop-color="#132462"/>
</linearGradient>
<linearGradient id="paint11_linear" x1="3515.63" y1="1552.38" x2="3527.65" y2="1552.38" gradientUnits="userSpaceOnUse">
<stop stop-color="white"/>
<stop offset="0.41" stop-color="#FCFCFC"/>
<stop offset="0.66" stop-color="#F4F4F4"/>
<stop offset="0.87" stop-color="#E6E6E6"/>
<stop offset="1" stop-color="#D8D8D8"/>
</linearGradient>
<linearGradient id="paint12_linear" x1="3568.47" y1="1539.2" x2="3580.62" y2="1539.2" gradientUnits="userSpaceOnUse">
<stop stop-color="white"/>
<stop offset="0.41" stop-color="#FCFCFC"/>
<stop offset="0.66" stop-color="#F4F4F4"/>
<stop offset="0.87" stop-color="#E6E6E6"/>
<stop offset="1" stop-color="#D8D8D8"/>
</linearGradient>
<linearGradient id="paint13_linear" x1="1855.43" y1="1141.27" x2="1857.7" y2="1141.27" gradientUnits="userSpaceOnUse">
<stop stop-color="white"/>
<stop offset="0.41" stop-color="#FCFCFC"/>
<stop offset="0.66" stop-color="#F4F4F4"/>
<stop offset="0.87" stop-color="#E6E6E6"/>
<stop offset="1" stop-color="#D8D8D8"/>
</linearGradient>
<linearGradient id="paint14_linear" x1="-97967.6" y1="19656.5" x2="-118353" y2="17302.6" gradientUnits="userSpaceOnUse">
<stop stop-color="#0081C6"/>
<stop offset="0.26" stop-color="#2C61AE"/>
<stop offset="0.42" stop-color="#2A5DA9"/>
<stop offset="0.6" stop-color="#26529C"/>
<stop offset="0.78" stop-color="#1F4085"/>
<stop offset="0.98" stop-color="#142766"/>
<stop offset="1" stop-color="#132462"/>
</linearGradient>
<linearGradient id="paint15_linear" x1="-5895.69" y1="351.317" x2="-5912.76" y2="381.29" gradientUnits="userSpaceOnUse">
<stop stop-color="#0081C6"/>
<stop offset="0.26" stop-color="#2C61AE"/>
<stop offset="0.42" stop-color="#2A5DA9"/>
<stop offset="0.6" stop-color="#26529C"/>
<stop offset="0.78" stop-color="#1F4085"/>
<stop offset="0.98" stop-color="#142766"/>
<stop offset="1" stop-color="#132462"/>
</linearGradient>
<linearGradient id="paint16_linear" x1="200.314" y1="572.044" x2="190.711" y2="566.407" gradientUnits="userSpaceOnUse">
<stop stop-color="#3818D6"/>
<stop offset="1" stop-color="#13FFE2"/>
</linearGradient>
<linearGradient id="paint17_linear" x1="3361.07" y1="3174.29" x2="3384.77" y2="3164.45" gradientUnits="userSpaceOnUse">
<stop stop-color="#3818D6"/>
<stop offset="1" stop-color="#13FFE2"/>
</linearGradient>
<linearGradient id="paint18_linear" x1="1576.72" y1="1894.6" x2="1581.19" y2="1892.98" gradientUnits="userSpaceOnUse">
<stop stop-color="#3818D6"/>
<stop offset="1" stop-color="#13FFE2"/>
</linearGradient>
<linearGradient id="paint19_linear" x1="-99405.2" y1="36102.4" x2="-107386" y2="28970.7" gradientUnits="userSpaceOnUse">
<stop stop-color="white"/>
<stop offset="0.41" stop-color="#FCFCFC"/>
<stop offset="0.66" stop-color="#F4F4F4"/>
<stop offset="0.87" stop-color="#E6E6E6"/>
<stop offset="1" stop-color="#D8D8D8"/>
</linearGradient>
<linearGradient id="paint20_linear" x1="36750" y1="61123.5" x2="35550.9" y2="59972.2" gradientUnits="userSpaceOnUse">
<stop stop-color="#0081C6"/>
<stop offset="0.26" stop-color="#2C61AE"/>
<stop offset="0.42" stop-color="#2A5DA9"/>
<stop offset="0.6" stop-color="#26529C"/>
<stop offset="0.78" stop-color="#1F4085"/>
<stop offset="0.98" stop-color="#142766"/>
<stop offset="1" stop-color="#132462"/>
</linearGradient>
<linearGradient id="paint21_linear" x1="333.976" y1="606.18" x2="411.868" y2="680.969" gradientUnits="userSpaceOnUse">
<stop stop-color="#2C61AE"/>
<stop offset="0.21" stop-color="#2A5DA9"/>
<stop offset="0.46" stop-color="#26529C"/>
<stop offset="0.71" stop-color="#1F4085"/>
<stop offset="0.97" stop-color="#142766"/>
<stop offset="1" stop-color="#132462"/>
</linearGradient>
<linearGradient id="paint22_linear" x1="5809.03" y1="7271.33" x2="5870.15" y2="7330.01" gradientUnits="userSpaceOnUse">
<stop stop-color="#0081C6"/>
<stop offset="0.26" stop-color="#2C61AE"/>
<stop offset="0.42" stop-color="#2A5DA9"/>
<stop offset="0.6" stop-color="#26529C"/>
<stop offset="0.78" stop-color="#1F4085"/>
<stop offset="0.98" stop-color="#142766"/>
<stop offset="1" stop-color="#132462"/>
</linearGradient>
<linearGradient id="paint23_linear" x1="67638.7" y1="14379.1" x2="66764.7" y2="14932.2" gradientUnits="userSpaceOnUse">
<stop stop-color="#0081C6"/>
<stop offset="0.26" stop-color="#2C61AE"/>
<stop offset="0.42" stop-color="#2A5DA9"/>
<stop offset="0.6" stop-color="#26529C"/>
<stop offset="0.78" stop-color="#1F4085"/>
<stop offset="0.98" stop-color="#142766"/>
<stop offset="1" stop-color="#132462"/>
</linearGradient>
<linearGradient id="paint24_linear" x1="14692.8" y1="1497.49" x2="14919" y2="1497.49" gradientUnits="userSpaceOnUse">
<stop stop-color="#0081C6"/>
<stop offset="0.26" stop-color="#2C61AE"/>
<stop offset="0.42" stop-color="#2A5DA9"/>
<stop offset="0.6" stop-color="#26529C"/>
<stop offset="0.78" stop-color="#1F4085"/>
<stop offset="0.98" stop-color="#142766"/>
<stop offset="1" stop-color="#132462"/>
</linearGradient>
<linearGradient id="paint25_linear" x1="687.405" y1="633.993" x2="718.183" y2="623.062" gradientUnits="userSpaceOnUse">
<stop stop-color="#142563"/>
<stop offset="1" stop-color="#2384F5"/>
</linearGradient>
<linearGradient id="paint26_linear" x1="22930" y1="5071.03" x2="22930" y2="4909.51" gradientUnits="userSpaceOnUse">
<stop stop-color="#0081C6"/>
<stop offset="0.26" stop-color="#2C61AE"/>
<stop offset="0.42" stop-color="#2A5DA9"/>
<stop offset="0.6" stop-color="#26529C"/>
<stop offset="0.78" stop-color="#1F4085"/>
<stop offset="0.98" stop-color="#142766"/>
<stop offset="1" stop-color="#132462"/>
</linearGradient>
<linearGradient id="paint27_linear" x1="17650.2" y1="9909.14" x2="18126.1" y2="9909.14" gradientUnits="userSpaceOnUse">
<stop stop-color="#0081C6"/>
<stop offset="0.26" stop-color="#2C61AE"/>
<stop offset="0.42" stop-color="#2A5DA9"/>
<stop offset="0.6" stop-color="#26529C"/>
<stop offset="0.78" stop-color="#1F4085"/>
<stop offset="0.98" stop-color="#142766"/>
<stop offset="1" stop-color="#132462"/>
</linearGradient>
<linearGradient id="paint28_linear" x1="11618.2" y1="3347.74" x2="11463.4" y2="3250.16" gradientUnits="userSpaceOnUse">
<stop stop-color="#0081C6"/>
<stop offset="0.26" stop-color="#2C61AE"/>
<stop offset="0.42" stop-color="#2A5DA9"/>
<stop offset="0.6" stop-color="#26529C"/>
<stop offset="0.78" stop-color="#1F4085"/>
<stop offset="0.98" stop-color="#142766"/>
<stop offset="1" stop-color="#132462"/>
</linearGradient>
<linearGradient id="paint29_linear" x1="10251.1" y1="4821.72" x2="10090.7" y2="4834.14" gradientUnits="userSpaceOnUse">
<stop stop-color="#0081C6"/>
<stop offset="0.26" stop-color="#2C61AE"/>
<stop offset="0.42" stop-color="#2A5DA9"/>
<stop offset="0.6" stop-color="#26529C"/>
<stop offset="0.78" stop-color="#1F4085"/>
<stop offset="0.98" stop-color="#142766"/>
<stop offset="1" stop-color="#132462"/>
</linearGradient>
<linearGradient id="paint30_linear" x1="61067.5" y1="20931.6" x2="60470.3" y2="21539.3" gradientUnits="userSpaceOnUse">
<stop stop-color="#0081C6"/>
<stop offset="0.26" stop-color="#2C61AE"/>
<stop offset="0.42" stop-color="#2A5DA9"/>
<stop offset="0.6" stop-color="#26529C"/>
<stop offset="0.78" stop-color="#1F4085"/>
<stop offset="0.98" stop-color="#142766"/>
<stop offset="1" stop-color="#132462"/>
</linearGradient>
<linearGradient id="paint31_linear" x1="105017" y1="7164.39" x2="105971" y2="9451.11" gradientUnits="userSpaceOnUse">
<stop stop-color="#2C61AE"/>
<stop offset="0.21" stop-color="#2A5DA9"/>
<stop offset="0.46" stop-color="#26529C"/>
<stop offset="0.71" stop-color="#1F4085"/>
<stop offset="0.97" stop-color="#142766"/>
<stop offset="1" stop-color="#132462"/>
</linearGradient>
<linearGradient id="paint32_linear" x1="109491" y1="7302.36" x2="109191" y2="7646.68" gradientUnits="userSpaceOnUse">
<stop stop-color="#0081C6"/>
<stop offset="0.26" stop-color="#2C61AE"/>
<stop offset="0.42" stop-color="#2A5DA9"/>
<stop offset="0.6" stop-color="#26529C"/>
<stop offset="0.78" stop-color="#1F4085"/>
<stop offset="0.98" stop-color="#142766"/>
<stop offset="1" stop-color="#132462"/>
</linearGradient>
<linearGradient id="paint33_linear" x1="6175.8" y1="1925.69" x2="6056.54" y2="2388.67" gradientUnits="userSpaceOnUse">
<stop stop-color="#0081C6"/>
<stop offset="0.26" stop-color="#2C61AE"/>
<stop offset="0.42" stop-color="#2A5DA9"/>
<stop offset="0.6" stop-color="#26529C"/>
<stop offset="0.78" stop-color="#1F4085"/>
<stop offset="0.98" stop-color="#142766"/>
<stop offset="1" stop-color="#132462"/>
</linearGradient>
</defs>
</svg>
