<svg width="800" height="1755" viewBox="0 0 800 1755" fill="none" xmlns="http://www.w3.org/2000/svg">
<path fill-rule="evenodd" clip-rule="evenodd" d="M-940.444 876.234C-948.255 868.424 -948.255 855.76 -940.444 847.95L-170.085 77.5906C-163.643 71.1483 -153.601 69.8193 -146.023 74.876C-39.7919 145.755 -7.37484 274.948 146.568 400.138C274.718 504.353 392.956 485.479 493.337 585.859C822.415 914.938 639.807 1184.85 348.059 1184.46C159.478 1184.2 10.6837 1348.32 -98.3226 1676.81C-103.053 1691.06 -121.174 1695.5 -131.793 1684.89L-940.444 876.234Z" fill="#003399"/>
<path fill-rule="evenodd" clip-rule="evenodd" d="M-481.195 1350.62L-481.195 639.663C-379.627 441.598 -245.068 391.387 -77.5165 489.031C173.81 635.496 -14.4003 814.512 183.928 938.562C382.257 1062.61 370.586 1243.89 165.116 1385.44C28.1357 1479.81 -187.301 1468.2 -481.195 1350.62Z" fill="#1A53C6"/>
<path fill-rule="evenodd" clip-rule="evenodd" d="M107.572 735.124C105.852 756.27 128.976 782.76 143.367 775.64C157.758 768.521 177.896 707.159 157.865 703.923C144.16 701.71 109.292 713.978 107.572 735.124Z" fill="#FEBA53"/>
</svg>
