<svg width="628" height="496" viewBox="0 0 628 496" fill="none" xmlns="http://www.w3.org/2000/svg">
<g clip-path="url(#clip0)">
<path d="M585.269 197.401C585.491 198.228 585.462 199.103 585.185 199.915C584.909 200.726 584.398 201.438 583.716 201.96C583.035 202.482 582.213 202.79 581.357 202.846C580.5 202.902 579.646 202.703 578.903 202.274C578.16 201.846 577.562 201.207 577.183 200.438C576.805 199.669 576.663 198.805 576.777 197.956C576.89 197.106 577.253 196.309 577.821 195.665C578.388 195.021 579.133 194.559 579.963 194.339C580.513 194.191 581.087 194.153 581.652 194.228C582.216 194.302 582.76 194.486 583.253 194.771C583.746 195.055 584.178 195.434 584.524 195.885C584.87 196.336 585.123 196.851 585.269 197.401Z" fill="#073BA3"/>
<path d="M556.029 246.366C556.25 247.194 556.221 248.069 555.945 248.881C555.668 249.692 555.157 250.404 554.475 250.926C553.794 251.447 552.973 251.756 552.116 251.812C551.259 251.868 550.406 251.669 549.663 251.24C548.92 250.811 548.321 250.172 547.943 249.403C547.564 248.635 547.422 247.771 547.536 246.921C547.649 246.072 548.013 245.274 548.58 244.631C549.147 243.987 549.893 243.525 550.722 243.304C551.273 243.157 551.846 243.119 552.411 243.193C552.975 243.267 553.52 243.452 554.013 243.736C554.505 244.021 554.937 244.399 555.283 244.851C555.629 245.302 555.882 245.817 556.029 246.366Z" fill="#073BA3"/>
<path d="M522.354 147.832C522.443 148.165 522.432 148.517 522.32 148.844C522.209 149.171 522.003 149.457 521.729 149.667C521.455 149.878 521.124 150.002 520.779 150.025C520.434 150.047 520.091 149.968 519.791 149.795C519.492 149.623 519.251 149.366 519.098 149.056C518.945 148.747 518.888 148.399 518.933 148.057C518.979 147.715 519.124 147.394 519.352 147.134C519.58 146.875 519.88 146.688 520.214 146.599C520.662 146.479 521.139 146.541 521.54 146.773C521.942 147.004 522.234 147.385 522.354 147.832Z" fill="#073BA3"/>
<path d="M464.669 248.811C464.759 249.145 464.749 249.497 464.639 249.825C464.528 250.152 464.323 250.44 464.049 250.651C463.775 250.862 463.445 250.987 463.1 251.011C462.755 251.034 462.41 250.955 462.11 250.783C461.811 250.611 461.569 250.354 461.416 250.045C461.262 249.735 461.204 249.387 461.249 249.045C461.294 248.703 461.44 248.381 461.668 248.121C461.896 247.861 462.197 247.675 462.531 247.585C462.977 247.466 463.453 247.527 463.854 247.757C464.255 247.987 464.548 248.366 464.669 248.811Z" fill="#073BA3"/>
<path d="M582.022 363.762C582.11 364.095 582.097 364.447 581.985 364.773C581.872 365.099 581.666 365.385 581.391 365.594C581.117 365.804 580.786 365.927 580.441 365.949C580.097 365.971 579.753 365.89 579.455 365.717C579.156 365.545 578.915 365.287 578.763 364.978C578.611 364.669 578.554 364.321 578.6 363.979C578.645 363.637 578.791 363.317 579.019 363.057C579.247 362.798 579.547 362.612 579.881 362.523C580.103 362.462 580.335 362.447 580.563 362.476C580.792 362.506 581.012 362.58 581.211 362.696C581.41 362.811 581.584 362.965 581.723 363.148C581.863 363.331 581.964 363.539 582.022 363.762Z" fill="#073BA3"/>
<path d="M482.444 19.2715C482.725 20.3258 482.686 21.4399 482.333 22.4731C481.98 23.5063 481.329 24.4121 480.461 25.0761C479.592 25.7401 478.547 26.1324 477.456 26.2035C476.365 26.2746 475.278 26.0213 474.332 25.4755C473.385 24.9298 472.623 24.1161 472.14 23.1374C471.658 22.1587 471.477 21.0588 471.62 19.9768C471.764 18.8949 472.226 17.8794 472.947 17.0586C473.668 16.2379 474.617 15.6489 475.673 15.3659C477.09 14.9879 478.6 15.1869 479.869 15.9192C481.139 16.6515 482.065 17.8572 482.444 19.2715Z" fill="#073BA3"/>
<path d="M323.102 160.145C323.317 160.947 323.288 161.795 323.021 162.582C322.753 163.368 322.257 164.058 321.597 164.564C320.937 165.07 320.142 165.369 319.311 165.424C318.481 165.479 317.654 165.286 316.933 164.871C316.213 164.457 315.633 163.838 315.265 163.093C314.897 162.348 314.759 161.511 314.868 160.688C314.977 159.865 315.329 159.092 315.877 158.467C316.426 157.842 317.148 157.394 317.952 157.179C319.029 156.89 320.177 157.04 321.143 157.597C322.109 158.153 322.814 159.07 323.102 160.145Z" fill="#073BA3"/>
<path d="M23.3994 200.37C23.5817 201.051 23.5577 201.77 23.3305 202.437C23.1034 203.104 22.6831 203.69 22.123 204.119C21.5629 204.548 20.8881 204.802 20.1838 204.848C19.4796 204.895 18.7775 204.732 18.1665 204.38C17.5555 204.028 17.0629 203.503 16.7511 202.871C16.4393 202.239 16.3221 201.529 16.4146 200.831C16.5071 200.132 16.805 199.476 17.2706 198.946C17.7362 198.416 18.3486 198.036 19.0304 197.853C19.9446 197.61 20.9176 197.739 21.7365 198.21C22.5554 198.682 23.1533 199.459 23.3994 200.37Z" fill="#073BA3"/>
<path d="M217.342 123.485C217.625 124.54 217.588 125.656 217.235 126.691C216.883 127.726 216.231 128.634 215.362 129.3C214.493 129.965 213.446 130.359 212.354 130.431C211.261 130.503 210.172 130.25 209.225 129.704C208.277 129.158 207.513 128.344 207.029 127.364C206.545 126.384 206.364 125.282 206.507 124.199C206.651 123.115 207.113 122.098 207.835 121.276C208.557 120.454 209.507 119.864 210.565 119.581C211.267 119.393 211.999 119.344 212.72 119.439C213.44 119.533 214.135 119.768 214.765 120.131C215.394 120.493 215.945 120.976 216.388 121.551C216.83 122.127 217.154 122.784 217.342 123.485Z" fill="#073BA3"/>
<path d="M152.828 188.864C152.942 189.29 152.927 189.74 152.785 190.158C152.643 190.575 152.38 190.941 152.029 191.21C151.679 191.478 151.257 191.637 150.816 191.666C150.375 191.695 149.936 191.593 149.554 191.373C149.172 191.153 148.863 190.824 148.668 190.429C148.473 190.034 148.4 189.589 148.458 189.152C148.516 188.715 148.702 188.305 148.993 187.973C149.285 187.642 149.668 187.404 150.094 187.29C150.666 187.136 151.276 187.216 151.788 187.511C152.301 187.807 152.675 188.293 152.828 188.864Z" fill="#073BA3"/>
<path d="M385.571 168.071C385.687 168.497 385.673 168.948 385.532 169.366C385.39 169.785 385.128 170.152 384.777 170.421C384.427 170.691 384.004 170.85 383.563 170.879C383.122 170.909 382.682 170.807 382.299 170.586C381.916 170.366 381.608 170.037 381.413 169.641C381.218 169.245 381.145 168.8 381.203 168.362C381.262 167.925 381.449 167.514 381.742 167.183C382.034 166.852 382.418 166.614 382.846 166.501C383.416 166.35 384.023 166.431 384.534 166.725C385.044 167.019 385.417 167.503 385.571 168.071Z" fill="#073BA3"/>
<path d="M371.821 56.926C371.936 57.352 371.923 57.8027 371.781 58.221C371.64 58.6394 371.377 59.0065 371.027 59.2759C370.676 59.5453 370.254 59.7048 369.812 59.7343C369.371 59.7637 368.931 59.6617 368.548 59.4412C368.166 59.2207 367.857 58.8916 367.662 58.4957C367.467 58.0997 367.394 57.6548 367.453 57.2173C367.511 56.7797 367.699 56.3692 367.991 56.0379C368.284 55.7065 368.668 55.4692 369.095 55.356C369.378 55.2804 369.672 55.2609 369.962 55.2989C370.252 55.3368 370.531 55.4314 370.784 55.5772C371.038 55.723 371.259 55.9171 371.437 56.1486C371.615 56.38 371.745 56.6442 371.821 56.926Z" fill="#073BA3"/>
<path d="M532.914 35.5147C533.026 35.9392 533.01 36.3876 532.867 36.8032C532.724 37.2188 532.462 37.583 532.112 37.8498C531.762 38.1166 531.341 38.274 530.902 38.3021C530.463 38.3303 530.025 38.2279 529.645 38.0079C529.264 37.7879 528.957 37.4601 528.764 37.0661C528.57 36.672 528.497 36.2293 528.555 35.7939C528.613 35.3584 528.799 34.9497 529.089 34.6194C529.38 34.2892 529.761 34.0522 530.186 33.9383C530.469 33.8625 530.764 33.8431 531.055 33.8813C531.345 33.9196 531.625 34.0146 531.878 34.1611C532.132 34.3075 532.354 34.5024 532.531 34.7347C532.709 34.967 532.839 35.2321 532.914 35.5147Z" fill="#073BA3"/>
<path d="M419.117 69.4122C419.005 68.9876 419.021 68.5393 419.163 68.1236C419.306 67.708 419.569 67.3438 419.919 67.077C420.269 66.8103 420.69 66.6529 421.129 66.6248C421.568 66.5966 422.005 66.699 422.386 66.919C422.767 67.139 423.073 67.4667 423.267 67.8608C423.461 68.2549 423.534 68.6975 423.476 69.133C423.418 69.5685 423.232 69.9771 422.941 70.3074C422.651 70.6377 422.269 70.8747 421.844 70.9886C421.561 71.0644 421.266 71.0838 420.976 71.0455C420.686 71.0073 420.406 70.9122 420.152 70.7658C419.899 70.6193 419.677 70.4244 419.499 70.1921C419.322 69.9598 419.192 69.6948 419.117 69.4122Z" fill="#073BA3"/>
<path d="M299.452 95.7632C299.567 96.1889 299.554 96.6393 299.413 97.0574C299.271 97.4755 299.009 97.8426 298.659 98.1121C298.309 98.3816 297.887 98.5414 297.446 98.5713C297.005 98.6011 296.565 98.4998 296.182 98.28C295.8 98.0602 295.491 97.7318 295.295 97.3365C295.099 96.9412 295.026 96.4968 295.083 96.0594C295.141 95.622 295.327 95.2113 295.618 94.8794C295.91 94.5475 296.293 94.3093 296.72 94.1949C297.003 94.1182 297.298 94.098 297.588 94.1354C297.879 94.1728 298.159 94.267 298.413 94.4127C298.666 94.5584 298.889 94.7527 299.067 94.9844C299.246 95.2162 299.376 95.4808 299.452 95.7632Z" fill="#073BA3"/>
<path d="M83.0433 134.304C83.1588 134.729 83.145 135.18 83.0039 135.598C82.8627 136.016 82.6006 136.383 82.2505 136.653C81.9004 136.922 81.4782 137.082 81.0373 137.112C80.5964 137.142 80.1567 137.04 79.7738 136.82C79.3909 136.601 79.0821 136.272 78.8864 135.877C78.6907 135.482 78.617 135.037 78.6746 134.6C78.7322 134.162 78.9184 133.752 79.2098 133.42C79.5012 133.088 79.8845 132.85 80.3114 132.735C80.5941 132.659 80.8892 132.639 81.1796 132.676C81.4701 132.713 81.7502 132.808 82.004 132.953C82.2578 133.099 82.4803 133.293 82.6586 133.525C82.837 133.757 82.9677 134.021 83.0433 134.304Z" fill="#073BA3"/>
<path d="M221.948 214.908C222.06 215.333 222.044 215.782 221.901 216.199C221.757 216.615 221.493 216.979 221.142 217.246C220.791 217.512 220.369 217.669 219.929 217.696C219.489 217.722 219.051 217.618 218.67 217.396C218.29 217.174 217.984 216.844 217.792 216.448C217.6 216.052 217.53 215.608 217.591 215.172C217.652 214.736 217.842 214.328 218.135 213.999C218.429 213.671 218.813 213.437 219.24 213.326C219.809 213.179 220.414 213.263 220.921 213.559C221.429 213.856 221.798 214.34 221.948 214.908Z" fill="#073BA3"/>
<path d="M108.383 278.661C108.499 279.087 108.485 279.537 108.344 279.955C108.203 280.373 107.94 280.74 107.59 281.01C107.24 281.279 106.818 281.439 106.377 281.469C105.936 281.499 105.496 281.397 105.114 281.178C104.731 280.958 104.422 280.63 104.226 280.234C104.03 279.839 103.957 279.394 104.014 278.957C104.072 278.52 104.258 278.109 104.55 277.777C104.841 277.445 105.224 277.207 105.651 277.093C106.222 276.94 106.83 277.019 107.342 277.313C107.855 277.607 108.229 278.092 108.383 278.661Z" fill="#073BA3"/>
<path d="M310.773 233.687C310.94 234.303 310.919 234.954 310.715 235.558C310.51 236.163 310.13 236.693 309.624 237.083C309.117 237.472 308.507 237.703 307.869 237.746C307.231 237.789 306.596 237.642 306.042 237.323C305.489 237.005 305.042 236.53 304.759 235.959C304.477 235.387 304.37 234.744 304.454 234.112C304.537 233.479 304.806 232.885 305.228 232.405C305.649 231.925 306.204 231.581 306.821 231.416C307.647 231.196 308.527 231.312 309.267 231.737C310.008 232.163 310.549 232.864 310.773 233.687Z" fill="#073BA3"/>
</g>
<defs>
<clipPath id="clip0">
<rect width="550.638" height="365.788" fill="white" transform="matrix(-0.965926 0.258819 0.258819 0.965926 532.419 0.160645)"/>
</clipPath>
</defs>
</svg>
